<svg xmlns="http://www.w3.org/2000/svg" viewBox="0 0 64 64">
  <path d="M20.357422 6C17.951929 6 15.626248 6.8679106 13.808594 8.4433594L1.3457031 19.244141 A 1.0001 1.0001 0 0 0 1.1992188 20.599609L10.199219 32.599609 A 1.0001 1.0001 0 0 0 11.625 32.78125L15 30.082031L15 53L15 58 A 1.0001 1.0001 0 0 0 16 59L49 59 A 1.0001 1.0001 0 0 0 50 58L50 30.082031L53.375 32.78125 A 1.0001 1.0001 0 0 0 54.800781 32.599609L63.800781 20.599609 A 1.0001 1.0001 0 0 0 63.654297 19.244141L51.191406 8.4433594C49.373752 6.8679106 47.048071 6 44.642578 6L40 6 A 1.0001 1.0001 0 0 0 39.363281 6.2285156 A 1.0001 1.0001 0 0 0 39.355469 6.234375C38.202475 7.1811779 35.533534 8 32.5 8C29.460388 8 26.785928 7.1777261 25.636719 6.2285156L25.636719 6.2304688 A 1.0001 1.0001 0 0 0 25 6L20.357422 6 z M 20.357422 8L24.173828 8C24.361922 9.2895387 24.796442 10.508339 25.556641 11.515625 A 1.0001 1.0001 0 1 0 27.152344 10.3125C26.831413 9.8872574 26.581363 9.4233875 26.388672 8.9394531C28.075173 9.6386106 30.190431 10 32.5 10C34.806968 10 36.919877 9.6389948 38.605469 8.9414062C37.661289 11.268102 35.131635 13 32.5 13C31.444692 13 30.395176 12.725935 29.457031 12.240234 A 1.0006508 1.0006508 0 1 0 28.537109 14.017578C29.742964 14.641878 31.101308 15 32.5 15C36.556177 15 40.198327 11.976685 40.775391 8L44.642578 8C46.567085 8 48.428467 8.6945269 49.882812 9.9550781L61.640625 20.144531L53.818359 30.574219L49.625 27.21875 A 1.0001 1.0001 0 0 0 48 28L48 57L17 57L17 53L17 28 A 1.0001 1.0001 0 0 0 15.375 27.21875L11.181641 30.574219L3.359375 20.144531L15.117188 9.9550781C16.571532 8.6945269 18.432915 8 20.357422 8 z M 20 51C19.448 51 19 51.448 19 52L19 54C19 54.552 19.448 55 20 55C20.552 55 21 54.552 21 54L21 52C21 51.448 20.552 51 20 51 z M 25 51C24.448 51 24 51.448 24 52L24 54C24 54.552 24.448 55 25 55C25.552 55 26 54.552 26 54L26 52C26 51.448 25.552 51 25 51 z M 30 51C29.448 51 29 51.448 29 52L29 54C29 54.552 29.448 55 30 55C30.552 55 31 54.552 31 54L31 52C31 51.448 30.552 51 30 51 z M 35 51C34.448 51 34 51.448 34 52L34 54C34 54.552 34.448 55 35 55C35.552 55 36 54.552 36 54L36 52C36 51.448 35.552 51 35 51 z M 40 51C39.448 51 39 51.448 39 52L39 54C39 54.552 39.448 55 40 55C40.552 55 41 54.552 41 54L41 52C41 51.448 40.552 51 40 51 z M 45 51C44.448 51 44 51.448 44 52L44 54C44 54.552 44.448 55 45 55C45.552 55 46 54.552 46 54L46 52C46 51.448 45.552 51 45 51 z" fill="#fff" />
</svg>