<svg xmlns="http://www.w3.org/2000/svg" viewBox="0 0 50 50">
  <path d="M24.984375 1.9863281 A 1.0001 1.0001 0 0 0 24.814453 2.0039062C12.274882 2.103865 2.1091128 12.266354 2.0039062 24.804688 A 1.0001 1.0001 0 0 0 2.0039062 25.183594C2.1028205 37.724066 12.2657 47.890882 24.804688 47.996094 A 1.0001 1.0001 0 0 0 25.183594 47.996094C37.724066 47.89718 47.890882 37.7343 47.996094 25.195312 A 1.0001 1.0001 0 0 0 47.996094 24.816406C47.897149 12.27201 37.72799 2.1028514 25.183594 2.0039062 A 1.0001 1.0001 0 0 0 24.984375 1.9863281 z M 24 4.0253906L24 5 A 1.0001 1.0001 0 1 0 26 5L26 4.0253906C36.812778 4.5308198 45.46918 13.187222 45.974609 24L45 24 A 1.0001 1.0001 0 1 0 45 26L45.974609 26C45.46918 36.812778 36.812778 45.46918 26 45.974609L26 45 A 1.0001 1.0001 0 0 0 24.984375 43.986328 A 1.0001 1.0001 0 0 0 24 45L24 45.974609C13.187222 45.46918 4.5308198 36.812778 4.0253906 26L5 26 A 1.0001 1.0001 0 1 0 5 24L4.0253906 24C4.5308198 13.187222 13.187222 4.5308198 24 4.0253906 z M 36.964844 12 A 1.0001 1.0001 0 0 0 36.439453 12.171875L22.117188 21.847656 A 1.0001 1.0001 0 0 0 21.847656 22.117188L12.171875 36.439453 A 1.0001 1.0001 0 0 0 13.560547 37.828125L27.884766 28.152344 A 1.0001 1.0001 0 0 0 28.154297 27.882812L37.828125 13.560547 A 1.0001 1.0001 0 0 0 36.964844 12 z M 23.396484 23.396484L26.603516 26.603516L16.71875 33.28125L23.396484 23.396484 z" fill="#fff" />
</svg>