<svg id="card-send_linear" data-name="card-send/linear" xmlns="http://www.w3.org/2000/svg" width="24" height="24" viewBox="0 0 24 24">
  <g id="vuesax_linear_card-send" data-name="vuesax/linear/card-send">
    <g id="card-send">
      <path id="Vector" d="M0,0H12.5" transform="translate(2 8.5)" fill="none" stroke="#010101" stroke-linecap="round" stroke-linejoin="round" stroke-width="1.5"/>
      <path id="Vector-2" data-name="Vector" d="M0,0H2" transform="translate(6 16.5)" fill="none" stroke="#010101" stroke-linecap="round" stroke-linejoin="round" stroke-width="1.5"/>
      <path id="Vector-3" data-name="Vector" d="M0,0H4" transform="translate(10.5 16.5)" fill="none" stroke="#010101" stroke-linecap="round" stroke-linejoin="round" stroke-width="1.5"/>
      <path id="Vector-4" data-name="Vector" d="M20,10.53v2.08c0,3.51-.89,4.39-4.44,4.39H4.44C.89,17,0,16.12,0,12.61V4.39C0,.88.89,0,4.44,0H12.5" transform="translate(2 3.5)" fill="none" stroke="#010101" stroke-linecap="round" stroke-linejoin="round" stroke-width="1.5"/>
      <path id="Vector-5" data-name="Vector" d="M0,6V0L2,2" transform="translate(20 3.5)" fill="none" stroke="#010101" stroke-linecap="round" stroke-linejoin="round" stroke-width="1.5"/>
      <path id="Vector-6" data-name="Vector" d="M2,0,0,2" transform="translate(18 3.5)" fill="none" stroke="#010101" stroke-linecap="round" stroke-linejoin="round" stroke-width="1.5"/>
      <path id="Vector-7" data-name="Vector" d="M0,0H24V24H0Z" fill="none" opacity="0"/>
    </g>
  </g>
</svg>
