<svg xmlns="http://www.w3.org/2000/svg" width="24" height="24" viewBox="0 0 24 24"><path d="M0,0H11.5" transform="translate(2 8.5)" fill="none" stroke="#6d28d9" stroke-linecap="round" stroke-linejoin="round" stroke-width="1.5"/><path d="M0,0H2" transform="translate(6 16.5)" fill="none" stroke="#6d28d9" stroke-linecap="round" stroke-linejoin="round" stroke-width="1.5"/><path d="M0,0H4" transform="translate(10.5 16.5)" fill="none" stroke="#6d28d9" stroke-linecap="round" stroke-linejoin="round" stroke-width="1.5"/><path d="M20,8.53v4.08c0,3.51-.89,4.39-4.44,4.39H4.44C.89,17,0,16.12,0,12.61V4.39C0,.88.89,0,4.44,0H11.5" transform="translate(2 3.5)" fill="none" stroke="#6d28d9" stroke-linecap="round" stroke-linejoin="round" stroke-width="1.5"/><path d="M0,3.88,3.88,0" transform="translate(17.309 4.31)" fill="none" stroke="#6d28d9" stroke-linecap="round" stroke-width="1.5"/><path d="M3.88,3.88,0,0" transform="translate(17.309 4.31)" fill="none" stroke="#6d28d9" stroke-linecap="round" stroke-width="1.5"/><path d="M0,0H24V24H0Z" fill="none" opacity="0"/></svg>