<svg xmlns="http://www.w3.org/2000/svg" viewBox="0 0 50 50">
  <path d="M4 3L4 4L4 10L6 10L6 41L6 42L6 48L13 48L13 44C13 43.166667 13.192734 42.721329 13.457031 42.457031C13.721329 42.192734 14.166667 42 15 42L24.832031 42 A 1.0001 1.0001 0 0 0 25.158203 42L35 42C35.833333 42 36.278671 42.192734 36.542969 42.457031C36.807266 42.721329 37 43.166667 37 44L37 48L44 48L44 42L44 41L44 10L46 10L46 3L4 3 z M 6 5L44 5L44 8L6 8L6 5 z M 8 10L24 10L24 40L15 40L8 40L8 10 z M 26 10L42 10L42 40L35 40L26 40L26 10 z M 19.984375 20.986328 A 1.0001 1.0001 0 0 0 19 22L19 28 A 1.0001 1.0001 0 1 0 21 28L21 22 A 1.0001 1.0001 0 0 0 19.984375 20.986328 z M 29.984375 20.986328 A 1.0001 1.0001 0 0 0 29 22L29 28 A 1.0001 1.0001 0 1 0 31 28L31 22 A 1.0001 1.0001 0 0 0 29.984375 20.986328 z M 8 42L11.410156 42C11.138986 42.59222 11 43.268868 11 44L11 46L8 46L8 42 z M 38.589844 42L42 42L42 46L39 46L39 44C39 43.268868 38.861014 42.59222 38.589844 42 z" fill="#fff" />
</svg>