<svg xmlns="http://www.w3.org/2000/svg" xmlns:xlink="http://www.w3.org/1999/xlink" width="261.999" height="247" viewBox="0 0 261.999 247"><defs><clipPath id="a"><path d="M239.953,322.819a109.333,109.333,0,0,1,0-218.667c2.955,0,5.938.12,8.866.356a22,22,0,1,1-3.529,43.857c-1.759-.141-3.555-.213-5.337-.213a65.334,65.334,0,1,0,65.334,65.333A64.535,64.535,0,0,0,297.6,182.7a22,22,0,0,1,38.787-20.773,109.362,109.362,0,0,1-96.431,160.9Z" fill="none"/></clipPath><linearGradient id="b" x1="0.998" y1="-0.246" x2="0.311" y2="0.474" gradientUnits="objectBoundingBox"><stop offset="0" stop-color="#2a486c"/><stop offset="0.029" stop-color="#2a486c" stop-opacity="0.949"/><stop offset="0.272" stop-color="#2a486c" stop-opacity="0.541"/><stop offset="0.49" stop-color="#2a486c" stop-opacity="0.243"/><stop offset="0.673" stop-color="#2a486c" stop-opacity="0.067"/><stop offset="0.799" stop-color="#2a486c" stop-opacity="0"/></linearGradient><linearGradient id="c" x1="1.487" y1="0.188" x2="0.351" y2="0.534" xlink:href="#b"/><linearGradient id="d" x1="1.381" y1="0.87" x2="0.397" y2="0.285" xlink:href="#b"/><linearGradient id="e" x1="1.295" y1="1.988" x2="0.202" y2="0.017" gradientUnits="objectBoundingBox"><stop offset="0" stop-color="#61486c"/><stop offset="0.029" stop-color="#5e486c" stop-opacity="0.949"/><stop offset="0.272" stop-color="#47486c" stop-opacity="0.541"/><stop offset="0.49" stop-color="#37486c" stop-opacity="0.243"/><stop offset="0.673" stop-color="#2d486c" stop-opacity="0.067"/><stop offset="0.799" stop-color="#2a486c" stop-opacity="0"/></linearGradient><linearGradient id="f" x1="-0.093" y1="1.582" x2="0.916" y2="0.156" gradientUnits="objectBoundingBox"><stop offset="0" stop-color="#72486c"/><stop offset="0.056" stop-color="#6a486c" stop-opacity="0.898"/><stop offset="0.291" stop-color="#4e486c" stop-opacity="0.514"/><stop offset="0.501" stop-color="#3a486c" stop-opacity="0.231"/><stop offset="0.678" stop-color="#2e486c" stop-opacity="0.063"/><stop offset="0.799" stop-color="#2a486c" stop-opacity="0"/></linearGradient><linearGradient id="g" x1="-0.799" y1="1" x2="0.667" y2="0.438" gradientUnits="objectBoundingBox"><stop offset="0" stop-color="#8d486c"/><stop offset="0.156" stop-color="#71486c" stop-opacity="0.725"/><stop offset="0.359" stop-color="#52486c" stop-opacity="0.416"/><stop offset="0.541" stop-color="#3c486c" stop-opacity="0.188"/><stop offset="0.694" stop-color="#2e486c" stop-opacity="0.051"/><stop offset="0.799" stop-color="#2a486c" stop-opacity="0"/></linearGradient><clipPath id="i"><rect width="261.999" height="247"/></clipPath></defs><g id="h" clip-path="url(#i)"><line x2="38.184" y2="38.184" transform="translate(191.195 175.56)" fill="none" stroke="#6d28d9" stroke-linecap="round" stroke-linejoin="round" stroke-width="44"/><path d="M316.99,172.31a87.345,87.345,0,1,1-77.037-46.158q3.586,0,7.1.285" transform="translate(-119 -93)" fill="none" stroke="#6d28d9" stroke-linecap="round" stroke-linejoin="round" stroke-width="44"/><g transform="translate(-119 -93)"><g clip-path="url(#a)"><g style="mix-blend-mode:multiply;isolation:isolate"><path d="M321.2,289.592a69.017,69.017,0,0,0-21.22-65.49,61.567,61.567,0,0,0,.81-9.95,60.7,60.7,0,0,0-3.57-20.57c-.01-.01-.02-.02-.01-.03-.71-1.97-1.51-3.88-2.4-5.75l-.01-.01-.77-9.26a69,69,0,0,1,44.95,17.7,68.184,68.184,0,0,1,11.72,13.68c.06,1.41.09,2.82.09,4.24A110.545,110.545,0,0,1,321.2,289.592Z" fill="url(#b)"/><path d="M321.2,289.592v.01a110.6,110.6,0,0,1-77.17,35.46,69.1,69.1,0,0,0,31.3-61.36,61.089,61.089,0,0,0,24.65-39.6,69.017,69.017,0,0,1,21.22,65.49Z" fill="url(#c)"/><path d="M244.027,325.062c-1.41.06-2.82.09-4.24.09a110.545,110.545,0,0,1-75.44-29.59,69.016,69.016,0,0,0,65.49-21.22,61.567,61.567,0,0,0,9.95.81,60.68,60.68,0,0,0,35.54-11.45A69.1,69.1,0,0,1,244.027,325.062Z" fill="url(#d)"/><path d="M229.837,274.342a69.016,69.016,0,0,1-65.49,21.22,110.608,110.608,0,0,1-35.47-77.17,69.1,69.1,0,0,0,61.36,31.3A61.09,61.09,0,0,0,229.837,274.342Z" fill="url(#e)"/><path d="M190.237,249.692a69.1,69.1,0,0,1-61.36-31.3c-.06-1.41-.09-2.82-.09-4.24a110.545,110.545,0,0,1,29.59-75.44A69.016,69.016,0,0,0,179.6,204.2a61.567,61.567,0,0,0-.81,9.95A60.68,60.68,0,0,0,190.237,249.692Z" fill="url(#f)"/><path d="M204.247,164.6a61.089,61.089,0,0,0-24.65,39.6,69.016,69.016,0,0,1-21.22-65.49,110.607,110.607,0,0,1,77.17-35.47A69.1,69.1,0,0,0,204.247,164.6Z" fill="url(#g)"/></g></g></g></g></svg>